<?xml version="1.0" encoding="UTF-8" standalone="no"?>
<svg
   aria-hidden="true"
   focusable="false"
   data-prefix="fas"
   data-icon="stethoscope"
   class="svg-inline--fa fa-stethoscope fa-w-16"
   role="img"
   viewBox="0 0 512 512"
   version="1.1"
   id="svg826"
   sodipodi:docname="icon.svg"
   inkscape:version="1.1 (c4e8f9e, 2021-05-24)"
   xmlns:inkscape="http://www.inkscape.org/namespaces/inkscape"
   xmlns:sodipodi="http://sodipodi.sourceforge.net/DTD/sodipodi-0.dtd"
   xmlns="http://www.w3.org/2000/svg"
   xmlns:svg="http://www.w3.org/2000/svg">
  <defs
     id="defs830" />
  <sodipodi:namedview
     id="namedview828"
     pagecolor="#232d4b"
     bordercolor="#666666"
     borderopacity="1.0"
     inkscape:pageshadow="2"
     inkscape:pageopacity="1"
     inkscape:pagecheckerboard="false"
     showgrid="false"
     inkscape:zoom="1.3164062"
     inkscape:cx="178.13651"
     inkscape:cy="255.24037"
     inkscape:window-width="1680"
     inkscape:window-height="900"
     inkscape:window-x="0"
     inkscape:window-y="26"
     inkscape:window-maximized="0"
     inkscape:current-layer="svg826" />
  <path
     fill="currentColor"
     d="m 395.3119,140.52916 c -24.9318,0.40095 -45.4167,22.77396 -45.927,50.19894 -0.3645,19.48617 9.1125,36.56664 23.328,45.54792 v 90.29394 c 0,45.94887 -36.5958,83.3976 -81.648,83.3976 -43.74,0 -79.6068,-35.36379 -81.5751,-79.54848 53.0712,-12.0285 93.1662,-63.83124 93.1662,-125.73792 V 80.065907 c 0,-9.14166 -5.9049,-17.08047 -14.0697,-18.84465 L 242.7322,51.117318 c -9.477,-2.08494 -18.6624,4.65102 -20.5578,15.075719 l -2.3328,12.58983 c -1.8954,10.4247 4.2282,20.52864 13.7052,22.613583 l 22.3803,4.89159 v 97.35065 c 0,42.42051 -30.7638,77.54373 -69.3279,77.94468 -38.9286,0.40095 -70.6401,-34.24113 -70.6401,-76.9824 v -98.23274 l 22.3803,-4.89159 c 9.477,-2.084943 15.6006,-12.188883 13.7052,-22.613583 l -2.2599,-12.58983 C 147.8893,55.848528 138.7039,49.112568 129.2269,51.197508 l -45.7812,9.943559 c -8.1648,1.84437 -14.0697,9.70299 -14.0697,18.92484 V 204.68116 c 0,61.98687 40.1679,113.8698 93.3849,125.73792 1.8954,72.49176 58.6845,130.87008 128.2311,130.87008 70.713,0 128.304,-60.46326 128.304,-134.7192 v -90.29394 c 13.9239,-8.90109 23.328,-25.42023 23.328,-44.42526 0,-28.62783 -21.2868,-51.72255 -47.3121,-51.3216 z m 0.6561,64.152 c -6.4152,0 -11.664,-5.77368 -11.664,-12.8304 0,-7.05672 5.2488,-12.8304 11.664,-12.8304 6.4152,0 11.664,5.77368 11.664,12.8304 0,7.05672 -5.2488,12.8304 -11.664,12.8304 z"
     id="path824"
     style="fill:#e57200;fill-opacity:1;stroke-width:0.764582" />
</svg>
